<svg width="647" height="437" viewBox="0 0 647 437" xmlns="http://www.w3.org/2000/svg" xmlns:xlink="http://www.w3.org/1999/xlink"><defs><path d="M.047 17.534c0 9.638 7.817 17.453 17.454 17.453 9.638 0 17.453-7.815 17.453-17.453C34.954 7.895 27.139.08 17.501.08 7.864.08.047 7.895.047 17.534z" id="a"/><path d="M.046 17.534c0 9.638 7.818 17.453 17.455 17.453 9.638 0 17.453-7.815 17.453-17.453C34.954 7.894 27.139.08 17.501.08 7.864.08.046 7.894.046 17.534z" id="c"/><path d="M93.974 41.265c-9.694-7.081-21.605-11.314-34.53-11.314C27.046 29.951.786 56.214.786 88.609c0 17.13 7.39 32.498 19.1 43.221a77.204 77.204 0 0 0-2.455 19.373c0 42.651 34.578 77.226 77.229 77.226 37.32 0 68.458-26.475 75.657-61.67C214.173 164.362 249 128.05 249 83.597 249 37.593 211.707.302 165.704.302c-30.547 0-57.233 16.45-71.73 40.963z" id="e"/><path d="M93.974 41.265c-9.694-7.081-21.605-11.314-34.53-11.314C27.046 29.951.786 56.214.786 88.609c0 17.13 7.39 32.498 19.1 43.221a77.204 77.204 0 0 0-2.455 19.373c0 42.651 34.578 77.226 77.229 77.226 37.32 0 68.458-26.475 75.657-61.67C214.173 164.362 249 128.05 249 83.597 249 37.593 211.707.302 165.704.302c-30.547 0-57.233 16.45-71.73 40.963z" id="g"/><path d="M21.065.252C9.121.943-.01 11.189.682 23.14a21.512 21.512 0 0 0 2.041 8.007l28.047-1.622a82.809 82.809 0 0 0 12.808-3.42c.35-1.76.484-3.592.376-5.469C43.287 9.112 33.737.216 22.34.216c-.422 0-.847.011-1.275.036z" id="i"/><path d="M5.977.953A5.944 5.944 0 0 0 .387 7.23a5.94 5.94 0 0 0 6.276 5.591A5.944 5.944 0 1 0 6.325.943a5.8 5.8 0 0 0-.348.01z" id="k"/><path id="m" d="M.557 33.976L13.801 43.2 39.07 13.539 19.649.014z"/><path d="M2.971 5.121c-4.258 4.997-3.658 12.5 1.34 16.756 4.998 4.259 12.502 3.659 16.759-1.338 4.257-4.999 3.657-12.502-1.342-16.759A11.83 11.83 0 0 0 12.027.941a11.859 11.859 0 0 0-9.056 4.18z" id="o"/><path d="M2.518 3.787a8.106 8.106 0 0 0 1.447 11.375 8.106 8.106 0 0 0 11.373-1.447 8.109 8.109 0 0 0-1.447-11.376A8.08 8.08 0 0 0 8.933.643a8.088 8.088 0 0 0-6.415 3.144z" id="q"/><path id="s" d="M.512 12.94L23.36 44.505l13.932-8.15L20.941.991z"/><path d="M5.173 2.34c-5.32 3.85-6.51 11.282-2.661 16.6 3.85 5.319 11.282 6.51 16.602 2.66 5.317-3.85 6.509-11.283 2.659-16.601a11.871 11.871 0 0 0-9.64-4.918c-2.415 0-4.854.734-6.96 2.259z" id="u"/><path d="M.047.001l1.769 36.012a77.199 77.199 0 0 0 14.458-24.466L16.275.001H.047z" id="w"/><path d="M.373 9.001v.072a82.9 82.9 0 0 0 15.382-3.68A8.113 8.113 0 0 0 .373 9.001z" id="y"/><path d="M40.631.089L8.154 1.968c-4.748.275-8.302 4.47-7.796 9.199l1.604 14.975 4.72 43.995 43.271-2.504-.387-44.245-.134-15.063c-.037-4.589-3.783-8.25-8.312-8.25-.163 0-.325.004-.489.014z" id="A"/><path d="M.646.889l.399 8.112.02.4a8.114 8.114 0 0 0 8.103 7.714h9.26a76.643 76.643 0 0 0 1.888-7.356 82.984 82.984 0 0 0 23.471-4.728L43.99.889H.646z" id="C"/><path d="M.374 1.001l.013.07.482-.07H.374z" id="E"/><path d="M.049 9.001a8.114 8.114 0 0 0 8.114 8.114 8.113 8.113 0 0 0 8.113-8.114 8.114 8.114 0 0 0-16.227 0z" id="G"/><path d="M.623 15.092l5.095.044a7.45 7.45 0 0 0 .131-14.9L.755.192l-.132 14.9z" id="I"/><path d="M.612 6.169a5.402 5.402 0 0 0 5.353 5.45l5.404.047.099-11.319L.662.253l-.05 5.916z" id="K"/><path id="M" d="M.375 16.746l14.859.13.142-16.1L.516.645z"/><path d="M.459 34.113l16.526.146a7.73 7.73 0 0 0 7.796-7.66L25.007.833.752.62.459 34.113z" id="O"/><path d="M11.537.631C5.613.631.785 5.406.732 11.341L.65 20.873l12.422.109L13.25.646 11.632.631h-.095z" id="Q"/><path d="M3.599.468a3.241 3.241 0 0 0-.028 6.482l3.242.029.027-3.242A3.24 3.24 0 0 0 3.627.468h-.028z" id="S"/><path d="M4.89.046A4.319 4.319 0 0 0 .572 4.445c.039 2.376 2.105 4.226 4.482 4.247l5.922.052a4.324 4.324 0 0 0 4.359-4.399C15.294 1.968 13.227.119 10.851.097L4.929.046H4.89z" id="U"/><path d="M.375 7.746a7.43 7.43 0 0 0 7.366 7.495 7.429 7.429 0 0 0 7.493-7.365A7.43 7.43 0 0 0 7.87.381L7.805.38a7.432 7.432 0 0 0-7.43 7.366z" id="W"/><path d="M.827 1.358a1.621 1.621 0 0 0 3.242.029l.003-.405L.831.953l-.004.405z" id="Y"/><path d="M4.583.588A4.322 4.322 0 0 0 .262 4.987c.04 2.375 2.106 4.226 4.483 4.247l5.921.052a4.322 4.322 0 0 0 4.359-4.399C14.984 2.511 12.919.661 10.542.64L4.621.588h-.038z" id="aa"/><path d="M4.726.572A4.32 4.32 0 0 0 .405 4.969c.039 2.378 2.106 4.227 4.483 4.248l5.921.051a4.32 4.32 0 0 0 4.359-4.397C15.127 2.494 13.061.646 10.685.625L4.764.572h-.038z" id="ac"/><path d="M5.308.647a4.323 4.323 0 0 0-4.32 4.399c.039 2.375 2.105 4.226 4.483 4.246l5.921.053a4.323 4.323 0 0 0 4.359-4.398C15.711 2.57 13.644.72 11.267.698L5.346.647h-.038z" id="ae"/><path d="M7.981.508A7.08 7.08 0 0 0 .904 7.712c.066 3.893 3.45 6.923 7.343 6.957l12.347.109a7.08 7.08 0 0 0 7.142-7.204C27.669 3.68 24.284.651 20.39.616L8.044.508h-.063z" id="ag"/><path d="M5.665 1.396a8.108 8.108 0 0 0-4.582 10.511 8.11 8.11 0 0 0 10.512 4.582 8.112 8.112 0 0 0 5.145-7.52v-.06a8.1 8.1 0 0 0-.564-2.932A8.107 8.107 0 0 0 8.629.832c-.986 0-1.99.182-2.964.564z" id="ai"/><path id="ak" d="M.792 8.311L22.745 42.71l1.913 3.004 1.298 2.031 6.325-3.226L15.173.975z"/><path id="am" d="M.791 8.311l25.165 39.434 6.325-3.226L15.172.975z"/><path d="M.174 4.378l1.484 2.335 1.298 2.032.018-.009c.003.008.009.014.012.02l-.013.011L7.5 15.742l.018-.016c.24.373.516.728.868 1.031a4.757 4.757 0 0 0 6.208-7.206L8.958 4.697 7.388.7.174 4.378z" id="ao"/><path d="M.823 14.947c0 7.894 6.398 14.292 14.291 14.292 7.893 0 14.292-6.398 14.292-14.292 0-7.895-6.399-14.294-14.292-14.294S.823 7.052.823 14.947z" id="aq"/><path d="M.78 1.688a3.074 3.074 0 0 0 4.895 3.72 3.076 3.076 0 0 0-.588-4.309A3.058 3.058 0 0 0 3.23.474c-.927 0-1.846.418-2.45 1.214z" id="as"/><path d="M93.974 41.265c-9.694-7.081-21.605-11.314-34.53-11.314C27.046 29.951.786 56.214.786 88.609c0 17.13 7.39 32.498 19.1 43.221a77.204 77.204 0 0 0-2.455 19.373c0 42.651 34.578 77.226 77.229 77.226 37.32 0 68.458-26.475 75.657-61.67C214.173 164.362 249 128.05 249 83.597 249 37.593 211.707.302 165.704.302c-30.547 0-57.233 16.45-71.73 40.963" id="au"/><path d="M.74 8.874a7.991 7.991 0 0 0 15.982 0 7.992 7.992 0 0 0-15.982 0z" id="aw"/><path d="M.673 4.259l4.108 6.127.003-.002a4.303 4.303 0 0 0 6.999.209 4.305 4.305 0 0 0-.823-6.03L5.087.102.673 4.259z" id="ay"/><path d="M93.974 41.265c-9.694-7.081-21.605-11.314-34.53-11.314C27.046 29.951.786 56.214.786 88.609c0 17.13 7.39 32.498 19.1 43.221a77.204 77.204 0 0 0-2.455 19.373c0 42.651 34.578 77.226 77.229 77.226 37.32 0 68.458-26.475 75.657-61.67C214.173 164.362 249 128.05 249 83.597 249 37.593 211.707.302 165.704.302c-30.547 0-57.233 16.45-71.73 40.963" id="aA"/><path d="M2.696 2.512a5.806 5.806 0 1 0 8.117 8.305 5.807 5.807 0 0 0 .094-8.212A5.789 5.789 0 0 0 6.755.856a5.788 5.788 0 0 0-4.059 1.656z" id="aC"/><path d="M93.974 41.265c-9.694-7.081-21.605-11.314-34.53-11.314C27.046 29.951.786 56.214.786 88.609c0 17.13 7.39 32.498 19.1 43.221a77.204 77.204 0 0 0-2.455 19.373c0 42.651 34.578 77.226 77.229 77.226 37.32 0 68.458-26.475 75.657-61.67C214.173 164.362 249 128.05 249 83.597 249 37.593 211.707.302 165.704.302c-30.547 0-57.233 16.45-71.73 40.963z" id="aE"/><path id="aG" d="M.244 27.007l8.507 7.87 24.478-23.212L21.524.833z"/><path d="M93.974 41.265c-9.694-7.081-21.605-11.314-34.53-11.314C27.046 29.951.786 56.214.786 88.609c0 17.13 7.39 32.498 19.1 43.221a77.204 77.204 0 0 0-2.455 19.373c0 42.651 34.578 77.226 77.229 77.226 37.32 0 68.458-26.475 75.657-61.67C214.173 164.362 249 128.05 249 83.597 249 37.593 211.707.302 165.704.302c-30.547 0-57.233 16.45-71.73 40.963z" id="aI"/><path id="aK" d="M.923 3.406l13.39 40.118 5.931-1.566L12.13.448z"/><path d="M93.974 41.265c-9.694-7.081-21.605-11.314-34.53-11.314C27.046 29.951.786 56.214.786 88.609c0 17.13 7.39 32.498 19.1 43.221a77.204 77.204 0 0 0-2.455 19.373c0 42.651 34.578 77.226 77.229 77.226 37.32 0 68.458-26.475 75.657-61.67C214.173 164.362 249 128.05 249 83.597 249 37.593 211.707.302 165.704.302c-30.547 0-57.233 16.45-71.73 40.963" id="aM"/><path d="M8.736.883C4.177.883.543 4.691.753 9.245l2.069 44.702h28.585L43.22 7.001C44 3.896 41.652.883 38.451.883H8.736z" id="aO"/><path d="M93.974 41.265c-9.694-7.081-21.605-11.314-34.53-11.314C27.046 29.951.786 56.214.786 88.609c0 17.13 7.39 32.498 19.1 43.221a77.204 77.204 0 0 0-2.455 19.373c0 42.651 34.578 77.226 77.229 77.226 37.32 0 68.458-26.475 75.657-61.67C214.173 164.362 249 128.05 249 83.597 249 37.593 211.707.302 165.704.302c-30.547 0-57.233 16.45-71.73 40.963" id="aQ"/><path d="M3.233 3.067a7.99 7.99 0 0 0-.3 11.297 7.99 7.99 0 0 0 11.296.301 7.988 7.988 0 0 0 .301-11.297A7.967 7.967 0 0 0 8.73.875a7.963 7.963 0 0 0-5.497 2.192z" id="aS"/><path d="M16.462.947H3.823A35.41 35.41 0 0 0 .137 16.68v8.418a8.606 8.606 0 0 0 8.606 8.606h24.824a8.605 8.605 0 0 0 8.605-8.606v-6.146a21.282 21.282 0 0 0-8.226-16.809L32.406.947H16.462z" id="aU"/><path d="M93.974 41.265c-9.694-7.081-21.605-11.314-34.53-11.314C27.046 29.951.786 56.214.786 88.609c0 17.13 7.39 32.498 19.1 43.221a77.204 77.204 0 0 0-2.455 19.373c0 42.651 34.578 77.226 77.229 77.226 37.32 0 68.458-26.475 75.657-61.67C214.173 164.362 249 128.05 249 83.597 249 37.593 211.707.302 165.704.302c-30.547 0-57.233 16.45-71.73 40.963z" id="aW"/><path id="aY" d="M.274 15.857l14.952 5.654 5.982-15.808L6.255.048z"/><path d="M93.974 41.265c-9.694-7.081-21.605-11.314-34.53-11.314C27.046 29.951.786 56.214.786 88.609c0 17.13 7.39 32.498 19.1 43.221a77.204 77.204 0 0 0-2.455 19.373c0 42.651 34.578 77.226 77.229 77.226 37.32 0 68.458-26.475 75.657-61.67C214.173 164.362 249 128.05 249 83.597 249 37.593 211.707.302 165.704.302c-30.547 0-57.233 16.45-71.73 40.963z" id="ba"/><path id="bc" d="M.921 3.408l11.58 34.69 6.647-1.757L12.131.446z"/><path d="M.137 9.097a8.606 8.606 0 0 0 8.607 8.605 8.606 8.606 0 0 0 0-17.211A8.606 8.606 0 0 0 .137 9.097z" id="be"/><path d="M.961 9.097a8.606 8.606 0 0 0 8.606 8.605 8.605 8.605 0 0 0 8.605-8.605 8.607 8.607 0 0 0-17.211 0z" id="bg"/><path d="M.961 7.595a6.952 6.952 0 0 0 13.904 0A6.951 6.951 0 0 0 7.912.644 6.95 6.95 0 0 0 .961 7.595z" id="bi"/><path d="M.962.595v10.556a77.12 77.12 0 0 0 12.896 2.064L14.865.595H.962z" id="bk"/><path id="bm" d="M.961 44.595l13.884.524L18.15.744.962.097z"/><path d="M.444 7.595c0 .577.07 1.137.203 1.674a77.081 77.081 0 0 0 9.28 4.804A6.952 6.952 0 0 0 7.397.644 6.95 6.95 0 0 0 .444 7.595z" id="bo"/><path d="M.443.595l.13 1.629a76.787 76.787 0 0 0 13.776 6.608V.595H.443z" id="bq"/><path id="bs" d="M.161.744l3.304 44.375 13.885-.524L17.349.097z"/><path id="bu" d="M.16.744l3.304 44.375h35.381L42.15.744z"/><path d="M6.806.373a6.762 6.762 0 0 0 .046 13.522 6.762 6.762 0 0 0 6.739-6.784A6.763 6.763 0 0 0 6.829.373h-.023z" id="bw"/><path id="by" d="M.01.505l.057 16.651 13.524-.045L13.534.459z"/><path d="M20.845.347h-.071c-.471.002-.938.019-1.401.053l-.398.031C8.508 1.377.327 10.19.363 20.895c.019 5.545 4.528 10.024 10.073 10.007l10.475 10.403c11.313-.037 20.449-9.235 20.411-20.548a21.043 21.043 0 0 0-.059-1.492l-.018-.224C40.34 8.559 31.548.348 20.847.347h-.002z" id="bA"/><path d="M12.285.429l-1.052.005C5.101.455.145 5.443.167 11.574l.054 16.033a7.915 7.915 0 0 0 7.942 7.889l16.394-.054-.077-22.898C24.458 5.844 19.021.429 12.325.429h-.04z" id="bC"/><path d="M3.057.15L.231.161.25 5.815l2.827-.011A2.828 2.828 0 0 0 3.066.15h-.009z" id="bE"/><path d="M.128.906l.028 8.367.564-.003a22.131 22.131 0 0 1 13.354 4.429 17.274 17.274 0 0 0 10.418 3.455l.565-.002-.054-16.33L.128.906z" id="bG"/><path d="M.124.355l.04 11.728c.023 6.843 5.588 12.371 12.432 12.348l-.037-10.838A12.393 12.393 0 0 0 5.497 2.448L1.098.352.124.355z" id="bI"/><path d="M.555 2.692A3.072 3.072 0 0 0 2.45 6.603 3.074 3.074 0 0 0 4.468.797 3.074 3.074 0 0 0 .555 2.692z" id="bK"/><path d="M5.071 1.521a7.993 7.993 0 0 0 6.258 14.708 7.993 7.993 0 0 0 4.225-10.483A7.995 7.995 0 0 0 8.196.881a7.967 7.967 0 0 0-3.125.64z" id="bM"/><path d="M1.489 6.609l.003.002a4.303 4.303 0 0 0 1.973 6.718 4.3 4.3 0 0 0 5.475-2.653l2.423-6.969L6.038.802 1.489 6.609z" id="bO"/><path d="M1.619 3.475a5.806 5.806 0 0 0 9.557 6.597 5.807 5.807 0 0 0-1.48-8.078 5.8 5.8 0 0 0-8.077 1.481z" id="bQ"/><path id="bS" d="M.847 6.002l13.207 31.045 10.938-3.832L15.9.731z"/><path id="bU" d="M.42 42.224l5.988 1.34L16.946 6.217 6.999.447z"/><path d="M93.974 41.265c-9.694-7.081-21.605-11.314-34.53-11.314C27.046 29.951.786 56.214.786 88.609c0 17.13 7.39 32.498 19.1 43.221a77.204 77.204 0 0 0-2.455 19.373c0 42.651 34.578 77.226 77.229 77.226 37.32 0 68.458-26.475 75.657-61.67C214.173 164.362 249 128.05 249 83.597 249 37.593 211.707.302 165.704.302c-30.547 0-57.233 16.45-71.73 40.963z" id="bW"/><path id="bY" d="M.311 36.572l6.708 1.5L17.052 4.008 5.998.446z"/><path id="ca" d="M.311 36.572l6.708 1.5L17.051 4.008 5.998.446z"/><path d="M.531 34.993a82.978 82.978 0 0 0 11.24-5.496l5.018-18.746L2.767.516.531 34.993z" id="cc"/><path d="M19.028.053C10.325.078 3.053 6.683 2.19 15.342L.573 31.567c-.757 7.592 5.22 14.173 12.849 14.152l8.805-.027L22.096.043l-3.068.01z" id="ce"/><path d="M.388 45.692l8.807.027c7.628.021 13.604-6.56 12.847-14.152l-1.615-16.225C19.563 6.683 12.291.078 3.588.053L.521.043.388 45.692z" id="cg"/><path id="ci" d="M.618.348l.049 16.799 13.642-.041L14.26.309z"/><path d="M2.116.726L.974 20.141C.632 25.926 5.242 30.8 11.035 30.782l6.642-.043L17.591.658 2.116.726z" id="ck"/><path d="M.799 30.739l6.643.043c5.794.018 10.402-4.856 10.062-10.641L16.359.726.887.658.799 30.739z" id="cm"/><path d="M11.277.754C5.39.772.632 5.558.649 11.445l.014 4.621H.662l.024 8.192-.023-8.192A15.053 15.053 0 0 0 12.3 10.507L20.245.729l-8.968.025z" id="co"/><path d="M8.234 10.507a15.05 15.05 0 0 0 11.637 5.559l.013-4.621C19.902 5.558 15.143.772 9.255.754L.289.729l7.945 9.778zm11.614 13.751l.023-8.192-.023 8.192z" id="cq"/><path d="M7.469.306A6.822 6.822 0 0 0 .667 7.147a6.82 6.82 0 0 0 6.842 6.801 6.82 6.82 0 0 0 6.8-6.842A6.82 6.82 0 0 0 7.49.306h-.021z" id="cs"/><path d="M93.974 41.265c-9.694-7.081-21.605-11.314-34.53-11.314C27.046 29.951.786 56.214.786 88.609c0 17.13 7.39 32.498 19.1 43.221a77.204 77.204 0 0 0-2.455 19.373c0 42.651 34.578 77.226 77.229 77.226 37.32 0 68.458-26.475 75.657-61.67C214.173 164.362 249 128.05 249 83.597 249 37.593 211.707.302 165.704.302c-30.547 0-57.233 16.45-71.73 40.963" id="cu"/><path d="M93.974 41.265c-9.694-7.081-21.605-11.314-34.53-11.314C27.046 29.951.786 56.214.786 88.609c0 17.13 7.39 32.498 19.1 43.221a77.204 77.204 0 0 0-2.455 19.373c0 42.651 34.578 77.226 77.229 77.226 37.32 0 68.458-26.475 75.657-61.67C214.173 164.362 249 128.05 249 83.597 249 37.593 211.707.302 165.704.302c-30.547 0-57.233 16.45-71.73 40.963" id="cw"/><path d="M93.974 41.265c-9.694-7.081-21.605-11.314-34.53-11.314C27.046 29.951.786 56.214.786 88.609c0 17.13 7.39 32.498 19.1 43.221a77.204 77.204 0 0 0-2.455 19.373c0 42.651 34.578 77.226 77.229 77.226 37.32 0 68.458-26.475 75.657-61.67C214.173 164.362 249 128.05 249 83.597 249 37.593 211.707.302 165.704.302c-30.547 0-57.233 16.45-71.73 40.963z" id="cy"/><path d="M93.974 41.265c-9.694-7.081-21.605-11.314-34.53-11.314C27.046 29.951.786 56.214.786 88.609c0 17.13 7.39 32.498 19.1 43.221a77.204 77.204 0 0 0-2.455 19.373c0 42.651 34.578 77.226 77.229 77.226 37.32 0 68.458-26.475 75.657-61.67C214.173 164.362 249 128.05 249 83.597 249 37.593 211.707.302 165.704.302c-30.547 0-57.233 16.45-71.73 40.963" id="cA"/><path d="M93.974 41.265c-9.694-7.081-21.605-11.314-34.53-11.314C27.046 29.951.786 56.214.786 88.609c0 17.13 7.39 32.498 19.1 43.221a77.204 77.204 0 0 0-2.455 19.373c0 42.651 34.578 77.226 77.229 77.226 37.32 0 68.458-26.475 75.657-61.67C214.173 164.362 249 128.05 249 83.597 249 37.593 211.707.302 165.704.302c-30.547 0-57.233 16.45-71.73 40.963" id="cC"/><path d="M93.974 41.265c-9.694-7.081-21.605-11.314-34.53-11.314C27.046 29.951.786 56.214.786 88.609c0 17.13 7.39 32.498 19.1 43.221a77.204 77.204 0 0 0-2.455 19.373c0 42.651 34.578 77.226 77.229 77.226 37.32 0 68.458-26.475 75.657-61.67C214.173 164.362 249 128.05 249 83.597 249 37.593 211.707.302 165.704.302c-30.547 0-57.233 16.45-71.73 40.963" id="cE"/><path d="M93.974 41.265c-9.694-7.081-21.605-11.314-34.53-11.314C27.046 29.951.786 56.214.786 88.609c0 17.13 7.39 32.498 19.1 43.221a77.204 77.204 0 0 0-2.455 19.373c0 42.651 34.578 77.226 77.229 77.226 37.32 0 68.458-26.475 75.657-61.67C214.173 164.362 249 128.05 249 83.597 249 37.593 211.707.302 165.704.302c-30.547 0-57.233 16.45-71.73 40.963" id="cG"/><path d="M93.974 41.265c-9.694-7.081-21.605-11.314-34.53-11.314C27.046 29.951.786 56.214.786 88.609c0 17.13 7.39 32.498 19.1 43.221a77.204 77.204 0 0 0-2.455 19.373c0 42.651 34.578 77.226 77.229 77.226 37.32 0 68.458-26.475 75.657-61.67C214.173 164.362 249 128.05 249 83.597 249 37.593 211.707.302 165.704.302c-30.547 0-57.233 16.45-71.73 40.963" id="cI"/><path d="M93.974 41.265c-9.694-7.081-21.605-11.314-34.53-11.314C27.046 29.951.786 56.214.786 88.609c0 17.13 7.39 32.498 19.1 43.221a77.204 77.204 0 0 0-2.455 19.373c0 42.651 34.578 77.226 77.229 77.226 37.32 0 68.458-26.475 75.657-61.67C214.173 164.362 249 128.05 249 83.597 249 37.593 211.707.302 165.704.302c-30.547 0-57.233 16.45-71.73 40.963" id="cK"/><path d="M93.974 41.265c-9.694-7.081-21.605-11.314-34.53-11.314C27.046 29.951.786 56.214.786 88.609c0 17.13 7.39 32.498 19.1 43.221a77.204 77.204 0 0 0-2.455 19.373c0 42.651 34.578 77.226 77.229 77.226 37.32 0 68.458-26.475 75.657-61.67C214.173 164.362 249 128.05 249 83.597 249 37.593 211.707.302 165.704.302c-30.547 0-57.233 16.45-71.73 40.963z" id="cM"/><path d="M93.974 41.265c-9.694-7.081-21.605-11.314-34.53-11.314C27.046 29.951.786 56.214.786 88.609c0 17.13 7.39 32.498 19.1 43.221a77.204 77.204 0 0 0-2.455 19.373c0 42.651 34.578 77.226 77.229 77.226 37.32 0 68.458-26.475 75.657-61.67C214.173 164.362 249 128.05 249 83.597 249 37.593 211.707.302 165.704.302c-30.547 0-57.233 16.45-71.73 40.963" id="cO"/><path d="M93.974 41.265c-9.694-7.081-21.605-11.314-34.53-11.314C27.046 29.951.786 56.214.786 88.609c0 17.13 7.39 32.498 19.1 43.221a77.204 77.204 0 0 0-2.455 19.373c0 42.651 34.578 77.226 77.229 77.226 37.32 0 68.458-26.475 75.657-61.67C214.173 164.362 249 128.05 249 83.597 249 37.593 211.707.302 165.704.302c-30.547 0-57.233 16.45-71.73 40.963" id="cQ"/><path d="M93.974 41.265c-9.694-7.081-21.605-11.314-34.53-11.314C27.046 29.951.786 56.214.786 88.609c0 17.13 7.39 32.498 19.1 43.221a77.204 77.204 0 0 0-2.455 19.373c0 42.651 34.578 77.226 77.229 77.226 37.32 0 68.458-26.475 75.657-61.67C214.173 164.362 249 128.05 249 83.597 249 37.593 211.707.302 165.704.302c-30.547 0-57.233 16.45-71.73 40.963" id="cS"/><path d="M93.974 41.265c-9.694-7.081-21.605-11.314-34.53-11.314C27.046 29.951.786 56.214.786 88.609c0 17.13 7.39 32.498 19.1 43.221a77.204 77.204 0 0 0-2.455 19.373c0 42.651 34.578 77.226 77.229 77.226 37.32 0 68.458-26.475 75.657-61.67C214.173 164.362 249 128.05 249 83.597 249 37.593 211.707.302 165.704.302c-30.547 0-57.233 16.45-71.73 40.963" id="cU"/><path d="M93.974 41.265c-9.694-7.081-21.605-11.314-34.53-11.314C27.046 29.951.786 56.214.786 88.609c0 17.13 7.39 32.498 19.1 43.221a77.204 77.204 0 0 0-2.455 19.373c0 42.651 34.578 77.226 77.229 77.226 37.32 0 68.458-26.475 75.657-61.67C214.173 164.362 249 128.05 249 83.597 249 37.593 211.707.302 165.704.302c-30.547 0-57.233 16.45-71.73 40.963z" id="cW"/><path d="M93.974 41.265c-9.694-7.081-21.605-11.314-34.53-11.314C27.046 29.951.786 56.214.786 88.609c0 17.13 7.39 32.498 19.1 43.221a77.204 77.204 0 0 0-2.455 19.373c0 42.651 34.578 77.226 77.229 77.226 37.32 0 68.458-26.475 75.657-61.67C214.173 164.362 249 128.05 249 83.597 249 37.593 211.707.302 165.704.302c-30.547 0-57.233 16.45-71.73 40.963z" id="cY"/><path d="M93.974 41.265c-9.694-7.081-21.605-11.314-34.53-11.314C27.046 29.951.786 56.214.786 88.609c0 17.13 7.39 32.498 19.1 43.221a77.204 77.204 0 0 0-2.455 19.373c0 42.651 34.578 77.226 77.229 77.226 37.32 0 68.458-26.475 75.657-61.67C214.173 164.362 249 128.05 249 83.597 249 37.593 211.707.302 165.704.302c-30.547 0-57.233 16.45-71.73 40.963" id="da"/><path d="M93.974 41.265c-9.694-7.081-21.605-11.314-34.53-11.314C27.046 29.951.786 56.214.786 88.609c0 17.13 7.39 32.498 19.1 43.221a77.204 77.204 0 0 0-2.455 19.373c0 42.651 34.578 77.226 77.229 77.226 37.32 0 68.458-26.475 75.657-61.67C214.173 164.362 249 128.05 249 83.597 249 37.593 211.707.302 165.704.302c-30.547 0-57.233 16.45-71.73 40.963" id="dc"/><path d="M93.974 41.265c-9.694-7.081-21.605-11.314-34.53-11.314C27.046 29.951.786 56.214.786 88.609c0 17.13 7.39 32.498 19.1 43.221a77.204 77.204 0 0 0-2.455 19.373c0 42.651 34.578 77.226 77.229 77.226 37.32 0 68.458-26.475 75.657-61.67C214.173 164.362 249 128.05 249 83.597 249 37.593 211.707.302 165.704.302c-30.547 0-57.233 16.45-71.73 40.963z" id="de"/><path d="M93.974 41.265c-9.694-7.081-21.605-11.314-34.53-11.314C27.046 29.951.786 56.214.786 88.609c0 17.13 7.39 32.498 19.1 43.221a77.204 77.204 0 0 0-2.455 19.373c0 42.651 34.578 77.226 77.229 77.226 37.32 0 68.458-26.475 75.657-61.67C214.173 164.362 249 128.05 249 83.597 249 37.593 211.707.302 165.704.302c-30.547 0-57.233 16.45-71.73 40.963z" id="dg"/><path d="M93.974 41.265c-9.694-7.081-21.605-11.314-34.53-11.314C27.046 29.951.786 56.214.786 88.609c0 17.13 7.39 32.498 19.1 43.221a77.204 77.204 0 0 0-2.455 19.373c0 42.651 34.578 77.226 77.229 77.226 37.32 0 68.458-26.475 75.657-61.67C214.173 164.362 249 128.05 249 83.597 249 37.593 211.707.302 165.704.302c-30.547 0-57.233 16.45-71.73 40.963" id="di"/><path d="M93.974 41.265c-9.694-7.081-21.605-11.314-34.53-11.314C27.046 29.951.786 56.214.786 88.609c0 17.13 7.39 32.498 19.1 43.221a77.204 77.204 0 0 0-2.455 19.373c0 42.651 34.578 77.226 77.229 77.226 37.32 0 68.458-26.475 75.657-61.67C214.173 164.362 249 128.05 249 83.597 249 37.593 211.707.302 165.704.302c-30.547 0-57.233 16.45-71.73 40.963z" id="dk"/><path d="M93.974 41.265c-9.694-7.081-21.605-11.314-34.53-11.314C27.046 29.951.786 56.214.786 88.609c0 17.13 7.39 32.498 19.1 43.221a77.204 77.204 0 0 0-2.455 19.373c0 42.651 34.578 77.226 77.229 77.226 37.32 0 68.458-26.475 75.657-61.67C214.173 164.362 249 128.05 249 83.597 249 37.593 211.707.302 165.704.302c-30.547 0-57.233 16.45-71.73 40.963z" id="dm"/><path d="M93.974 41.265c-9.694-7.081-21.605-11.314-34.53-11.314C27.046 29.951.786 56.214.786 88.609c0 17.13 7.39 32.498 19.1 43.221a77.204 77.204 0 0 0-2.455 19.373c0 42.651 34.578 77.226 77.229 77.226 37.32 0 68.458-26.475 75.657-61.67C214.173 164.362 249 128.05 249 83.597 249 37.593 211.707.302 165.704.302c-30.547 0-57.233 16.45-71.73 40.963" id="do"/><path d="M93.974 41.265c-9.694-7.081-21.605-11.314-34.53-11.314C27.046 29.951.786 56.214.786 88.609c0 17.13 7.39 32.498 19.1 43.221a77.204 77.204 0 0 0-2.455 19.373c0 42.651 34.578 77.226 77.229 77.226 37.32 0 68.458-26.475 75.657-61.67C214.173 164.362 249 128.05 249 83.597 249 37.593 211.707.302 165.704.302c-30.547 0-57.233 16.45-71.73 40.963z" id="dq"/><path d="M93.974 41.265c-9.694-7.081-21.605-11.314-34.53-11.314C27.046 29.951.786 56.214.786 88.609c0 17.13 7.39 32.498 19.1 43.221a77.204 77.204 0 0 0-2.455 19.373c0 42.651 34.578 77.226 77.229 77.226 37.32 0 68.458-26.475 75.657-61.67C214.173 164.362 249 128.05 249 83.597 249 37.593 211.707.302 165.704.302c-30.547 0-57.233 16.45-71.73 40.963z" id="ds"/><path d="M93.974 41.265c-9.694-7.081-21.605-11.314-34.53-11.314C27.046 29.951.786 56.214.786 88.609c0 17.13 7.39 32.498 19.1 43.221a77.204 77.204 0 0 0-2.455 19.373c0 42.651 34.578 77.226 77.229 77.226 37.32 0 68.458-26.475 75.657-61.67C214.173 164.362 249 128.05 249 83.597 249 37.593 211.707.302 165.704.302c-30.547 0-57.233 16.45-71.73 40.963" id="du"/><path d="M93.974 41.265c-9.694-7.081-21.605-11.314-34.53-11.314C27.046 29.951.786 56.214.786 88.609c0 17.13 7.39 32.498 19.1 43.221a77.204 77.204 0 0 0-2.455 19.373c0 42.651 34.578 77.226 77.229 77.226 37.32 0 68.458-26.475 75.657-61.67C214.173 164.362 249 128.05 249 83.597 249 37.593 211.707.302 165.704.302c-30.547 0-57.233 16.45-71.73 40.963" id="dw"/><path d="M93.974 41.265c-9.694-7.081-21.605-11.314-34.53-11.314C27.046 29.951.786 56.214.786 88.609c0 17.13 7.39 32.498 19.1 43.221a77.204 77.204 0 0 0-2.455 19.373c0 42.651 34.578 77.226 77.229 77.226 37.32 0 68.458-26.475 75.657-61.67C214.173 164.362 249 128.05 249 83.597 249 37.593 211.707.302 165.704.302c-30.547 0-57.233 16.45-71.73 40.963z" id="dy"/><path d="M93.974 41.265c-9.694-7.081-21.605-11.314-34.53-11.314C27.046 29.951.786 56.214.786 88.609c0 17.13 7.39 32.498 19.1 43.221a77.204 77.204 0 0 0-2.455 19.373c0 42.651 34.578 77.226 77.229 77.226 37.32 0 68.458-26.475 75.657-61.67C214.173 164.362 249 128.05 249 83.597 249 37.593 211.707.302 165.704.302c-30.547 0-57.233 16.45-71.73 40.963" id="dA"/><path d="M93.974 41.265c-9.694-7.081-21.605-11.314-34.53-11.314C27.046 29.951.786 56.214.786 88.609c0 17.13 7.39 32.498 19.1 43.221a77.204 77.204 0 0 0-2.455 19.373c0 42.651 34.578 77.226 77.229 77.226 37.32 0 68.458-26.475 75.657-61.67C214.173 164.362 249 128.05 249 83.597 249 37.593 211.707.302 165.704.302c-30.547 0-57.233 16.45-71.73 40.963z" id="dC"/><path d="M93.974 41.265c-9.694-7.081-21.605-11.314-34.53-11.314C27.046 29.951.786 56.214.786 88.609c0 17.13 7.39 32.498 19.1 43.221a77.204 77.204 0 0 0-2.455 19.373c0 42.651 34.578 77.226 77.229 77.226 37.32 0 68.458-26.475 75.657-61.67C214.173 164.362 249 128.05 249 83.597 249 37.593 211.707.302 165.704.302c-30.547 0-57.233 16.45-71.73 40.963z" id="dE"/><path d="M59.444 29.951C27.046 29.951.786 56.214.786 88.609c0 17.13 7.39 32.498 19.1 43.221a77.204 77.204 0 0 0-2.455 19.373c0 42.651 34.578 77.226 77.229 77.226 37.32 0 68.458-26.475 75.657-61.67C214.173 164.362 249 128.05 249 83.597 249 37.593 211.707.302 165.704.302c-30.547 0-57.233 16.45-71.73 40.963-9.694-7.081-21.605-11.314-34.53-11.314z" id="dG"/></defs><g fill="none" fill-rule="evenodd"><path fill="#00508C" d="M1.335 148.887l102.483-67.333-1.318-2.008L.017 146.88z"/><path fill="#00508C" d="M48.356 201.292l2.004-1.32-45.953-69.944-2.01 1.32z"/><path fill="#00508C" d="M64.378 225.683h7.543v-2.403h-6.248l-15.316-23.315-2.01 1.319z"/><path d="M257.815 65.365c0 17.02-13.797 30.816-30.816 30.816-17.02 0-30.817-13.796-30.817-30.816S209.98 34.55 227 34.55s30.816 13.796 30.816 30.816" fill="#364460"/><path d="M226.999 35.32c-16.567 0-30.046 13.478-30.046 30.045s13.479 30.046 30.046 30.046 30.046-13.479 30.046-30.046-13.479-30.046-30.046-30.046m0 61.633c-17.417 0-31.587-14.17-31.587-31.587s14.17-31.587 31.587-31.587 31.587 14.17 31.587 31.587-14.17 31.587-31.587 31.587" fill="#364460"/><path d="M226.999 34.549v6.48-6.48z" fill="#00508C"/><path fill="#FFF" d="M226.229 41.03h1.541v-6.481h-1.541z"/><path d="M226.999 89.7v6.481-6.48z" fill="#00508C"/><path fill="#FFF" d="M226.229 96.182h1.541v-6.481h-1.541z"/><path d="M211.59 38.677l3.242 5.613-3.241-5.613z" fill="#00508C"/><path fill="#FFF" d="M214.165 44.676l-3.241-5.613 1.334-.771 3.241 5.613z"/><path d="M239.167 86.44l3.24 5.613-3.24-5.613z" fill="#00508C"/><path fill="#FFF" d="M241.74 92.439l-3.24-5.613 1.334-.771 3.241 5.612z"/><path d="M200.311 49.957l5.613 3.241-5.613-3.241z" fill="#00508C"/><path fill="#FFF" d="M205.54 53.865l-5.613-3.24.77-1.336 5.614 3.241z"/><path d="M248.074 77.533l5.613 3.24-5.613-3.24z" fill="#00508C"/><path fill="#FFF" d="M253.302 81.44l-5.612-3.24.769-1.335 5.614 3.24z"/><path d="M196.183 65.365h6.48-6.48z" fill="#00508C"/><path fill="#FFF" d="M196.183 66.136h6.481v-1.541h-6.481z"/><path d="M251.334 65.365h6.481-6.481z" fill="#00508C"/><path fill="#FFF" d="M251.334 66.136h6.481v-1.541h-6.481z"/><path d="M200.311 80.773l5.613-3.24-5.613 3.24z" fill="#00508C"/><path fill="#FFF" d="M200.697 81.44l-.77-1.334 5.613-3.241.77 1.335z"/><path d="M248.074 53.198l5.613-3.241-5.613 3.24z" fill="#00508C"/><path fill="#FFF" d="M248.459 53.865l-.77-1.335 5.613-3.24.77 1.334z"/><path d="M211.59 92.053l3.242-5.613-3.241 5.613z" fill="#00508C"/><path fill="#FFF" d="M212.258 92.439l-1.334-.771 3.24-5.614 1.335.772z"/><path d="M239.167 44.29l3.24-5.612-3.24 5.613z" fill="#00508C"/><path fill="#FFF" d="M239.834 44.676l-1.335-.771 3.241-5.613 1.335.77zM241.64 66.136h-15.411V46.592h1.54v18.003h13.87z"/><path fill="#364460" d="M302.96 283.58l-43.94 151.41h-5.05l35.93-151.41zM348.908 283.58l43.941 151.41h5.05l-35.93-151.41z"/><path d="M251.935 261.983c0 40.87 33.13 74 74 74 40.869 0 74-33.13 74-74 0-40.869-33.131-74-74-74-40.87 0-74 33.131-74 74" fill="#1789CA"/><path d="M292.352 255.682c0 12.841 10.409 23.251 23.25 23.251 12.842 0 23.252-10.41 23.252-23.25 0-12.842-10.41-23.252-23.251-23.252-12.842 0-23.251 10.41-23.251 23.251" fill="#AB9AF7"/><path d="M183.996 234.407a5 5 0 1 1 9.384-3.46 5 5 0 0 1-9.384 3.46" fill="#F8A995"/><path d="M288.965 182.36c0 7.18 5.82 13 13 13s13-5.82 13-13-5.82-13-13-13-13 5.82-13 13" fill="#AB9AF7"/><path d="M176.576 227.954l.001.006a6.98 6.98 0 0 0-2.263.427 6.997 6.997 0 0 0-4.144 8.989 6.999 6.999 0 0 0 8.99 4.145l11.258-4.153-1.846-9.691-11.996.277zM242.843 207.958c1.806 4.895 7.237 7.399 12.132 5.594a9.448 9.448 0 0 0 5.593-12.132c-1.806-4.895-7.238-7.4-12.132-5.593a9.446 9.446 0 0 0-5.593 12.131" fill="#F8A995"/><path fill="#F8A995" d="M295.914 170.852l-48.605 25.475 7.666 17.225 51.49-18.995z"/><path fill="#F8A995" d="M247.311 196.326l-60.95 31.924 4.056 9.118 64.558-23.816z"/><path d="M285.684 425.989a6.5 6.5 0 1 1-13 0 6.5 6.5 0 0 1 13 0" fill="#1789CA"/><path d="M292.352 255.682H338.854l2.506 1.947a34.63 34.63 0 0 1 13.38 27.344v10.001c0 7.731-6.267 14-14 14h-40.384c-7.733 0-14.001-6.269-14-14v-13.696c0-8.88 2.053-17.64 5.996-25.596" fill="#00508C"/><path d="M359.232 235.302c-.674-5.173 2.974-9.914 8.146-10.588 5.174-.674 9.915 2.973 10.588 8.147a9.446 9.446 0 0 1-8.146 10.587 9.445 9.445 0 0 1-10.588-8.146" fill="#F8A995"/><path fill="#F8A995" d="M362.397 178.755l15.28 52.707-17.735 6.397-21.952-50.3z"/><path d="M288.985 182.96l3.366 72.722h46.502l19.217-76.37c1.27-5.052-2.549-9.952-7.759-9.952h-48.34c-7.415 0-13.329 6.193-12.986 13.6" fill="#364460"/><path d="M314.161 177.86c2.484 6.736-.96 14.211-7.697 16.696-6.737 2.485-14.21-.96-16.697-7.697-2.484-6.736.961-14.21 7.698-16.696 6.736-2.485 14.211.961 16.696 7.697" fill="#364460"/><path d="M322.005 193.612l-16.023 22.349-.182-.132c-3.004 4.323-8.493 6.513-13.865 5.082-6.871-1.83-10.945-8.876-9.118-15.736a12.78 12.78 0 0 1 2.085-4.33l-.062-.037 16.022-22.35 21.143 15.154zM355.104 194.274c-6.58 2.872-14.243-.134-17.113-6.715-2.873-6.58.135-14.243 6.714-17.114 6.58-2.872 14.244.134 17.115 6.715 2.872 6.58-.135 14.242-6.716 17.114" fill="#364460"/><path fill="#364460" d="M337.991 187.561l14.311 32.792 20.05-7.233-9.957-34.365zM306.464 194.556l-33.568 12.384-8.666-19.474 31.688-16.615z"/><path d="M300.356 308.97c-7.732 0-14-6.267-14-14 0-7.731 6.268-14 14-14 7.731 0 14 6.269 14 14 0 7.733-6.269 14-14 14M354.74 294.97c0 7.733-6.268 14-14 14-7.73 0-14-6.267-14-14 0-7.731 6.27-14 14-14 7.732 0 14 6.269 14 14" fill="#00508C"/><path d="M272.685 425.989h12.999v9H267.47a2.787 2.787 0 0 1-1.39-5.204l6.604-3.796z" fill="#1789CA"/><path d="M265.683 297.66c0 6.248-5.063 11.31-11.31 11.31-6.247 0-11.31-5.062-11.31-11.31 0-6.246 5.063-11.31 11.31-11.31 6.247 0 11.31 5.064 11.31 11.31" fill="#00508C"/><path fill="#00508C" d="M243.254 300.143L272.76 426.99l12.846-2.003-20.002-128.327z"/><path d="M318.41 425.989a6.5 6.5 0 1 1-13 0 6.5 6.5 0 0 1 13 0" fill="#1789CA"/><path d="M305.41 425.989h13v9h-18.214a2.787 2.787 0 0 1-1.39-5.204l6.603-3.796z" fill="#1789CA"/><path d="M298.408 297.66c0 6.248-5.063 11.31-11.31 11.31-6.247 0-11.31-5.062-11.31-11.31 0-6.246 5.063-11.31 11.31-11.31 6.247 0 11.31 5.064 11.31 11.31" fill="#00508C"/><path fill="#00508C" d="M275.98 300.143l29.506 126.847 12.846-2.003L298.33 296.66z"/><path fill="#F8A995" d="M307.648 169.36h22v-27.09h-22z"/><path d="M329.648 169.36c0 6.075-4.925 11-11 11s-11-4.925-11-11 4.925-11 11-11 11 4.925 11 11" fill="#F8A995"/><path d="M322.78 139.38c0 8.65 7.012 15.662 15.662 15.662 8.65 0 15.663-7.012 15.663-15.663 0-8.65-7.013-15.663-15.663-15.663s-15.663 7.013-15.663 15.663" fill="#00508C"/><path d="M279.538 118.864c0-19.088 15.468-34.555 34.556-34.555 19.088 0 34.555 15.467 34.555 34.555s-15.467 34.556-34.555 34.556l-17.617-17.616c-9.355 0-16.939-7.584-16.939-16.94" fill="#00508C"/><path d="M330.648 135.92h-5v-10h5a5 5 0 1 1 0 10" fill="#F8A995"/><path d="M292.068 106.908h37.58v48.511h-23.34c-9.344 0-16.753-7.88-16.177-17.207l1.937-31.304z" fill="#F8A995"/><path d="M329.648 125.92h1V97.034h-29.767c-7.86 0-14.233 6.372-14.233 14.233v.566h1a39.13 39.13 0 0 1 23.591 7.911v.001a30.533 30.533 0 0 0 18.41 6.173M261.294 243.578h48v-6h-48z" fill="#00508C"/><path fill="#BFBFC5" d="M265.167 243.58h-96l-.01-.11-.689-14.96-2.49-53.43h96l2.49 53.54z"/><path fill="#00508C" d="M298.706 281.067l-45.666 5.36 1.333 22.544h45.983z"/><path d="M295.07 236.924a5 5 0 1 0 9.445 3.279 4.997 4.997 0 0 0-3.084-6.363 4.998 4.998 0 0 0-6.362 3.084" fill="#F8A995"/><path d="M285.505 243.13a6.99 6.99 0 0 0 2.27.383v.007l12 .045 1.657-9.726-11.336-3.934a6.998 6.998 0 0 0-8.908 4.318 7 7 0 0 0 4.317 8.908" fill="#F8A995"/><path fill="#F8A995" d="M368.593 243.528l-68.804.035-.642-9.958 68.232-8.89z"/><path d="M306.964 139.981a5.5 5.5 0 1 1-11 .021l11-.021z" fill="#FFF"/><path fill="#364460" d="M50.717 245.578l-1.05 10-19.89 181.41h-5.05l14.93-191.41zM517.306 245.578l1.05 10 19.89 181.41h5.05l-14.93-191.41z"/><path fill="#FFF" d="M28.882 253.578h508.489v-10H28.882z"/><path fill="#00508C" d="M71.709 243.578h2.402v-32.111h-2.402zM117.032 113.865l39.104-25.69c-4.888-7.44-19.46-18.923-30.997-22.066l-10.296-15.67L98.78 60.99l10.297 15.672c-1.686 11.83 3.068 29.763 7.956 37.202"/><path fill="#00508C" d="M45.281 243.578h55.257v-7.208H45.281z"/><path d="M529.62 259.637l6.276 80.483-6.277-80.483zM536.476 347.552l.533 6.829-.533-6.83z" fill="#FFF"/><path d="M382.501 118.08c9.639 0 17.453 7.814 17.453 17.453 0 9.64-7.814 17.454-17.453 17.454-9.637 0-17.454-7.815-17.454-17.454s7.817-17.453 17.454-17.453" fill="#008AD1"/><g transform="translate(365 118)"><mask id="b" fill="#fff"><use xlink:href="#a"/></mask><path fill="#008AD1" mask="url(#b)" d="M-840.595 2999.671H539.302v-5072.276H-840.595z"/></g><g transform="translate(365 118)"><mask id="d" fill="#fff"><use xlink:href="#c"/></mask><path fill="#008AD1" mask="url(#d)" d="M-5.702 40.737h46.405V-5.669H-5.702z"/></g><path d="M398.786 88.609c0-32.396 26.26-58.658 58.658-58.658 12.925 0 24.835 4.233 34.53 11.315C506.472 16.752 533.158.302 563.704.302 609.706.302 647 37.592 647 83.597c0 44.453-34.826 80.765-78.684 83.162-7.198 35.195-38.336 61.67-75.656 61.67-42.65 0-77.229-34.575-77.229-77.226 0-6.69.852-13.182 2.455-19.373-11.71-10.723-19.1-26.092-19.1-43.221" fill="#008AD1"/><g transform="translate(398)"><mask id="f" fill="#fff"><use xlink:href="#e"/></mask><path fill="#008AD1" mask="url(#f)" d="M-1004 3560H574v-5802h-1578z"/></g><g transform="translate(398)"><mask id="h" fill="#fff"><use xlink:href="#g"/></mask><path fill="#008AD1" mask="url(#h)" d="M-6 235h261V-6H-6z"/></g><g transform="translate(548 136)"><mask id="j" fill="#fff"><use xlink:href="#i"/></mask><path fill="#00508C" mask="url(#j)" d="M-2.117 33.911h48.87V-2.547h-48.87z"/></g><g transform="translate(564 151)"><mask id="l" fill="#fff"><use xlink:href="#k"/></mask><path fill="#00508C" mask="url(#l)" d="M-2.386 15.594h17.412V-1.819H-2.386z"/></g><g transform="translate(521 97)"><mask id="n" fill="#fff"><use xlink:href="#m"/></mask><path fill="#00508C" mask="url(#n)" d="M-2.205 45.961h44.037v-48.71H-2.205z"/></g><g transform="translate(539 90)"><mask id="p" fill="#fff"><use xlink:href="#o"/></mask><path fill="#00508C" mask="url(#p)" d="M-2.63 27.479h29.301V-1.822H-2.63z"/></g><g transform="translate(594 126)"><mask id="r" fill="#fff"><use xlink:href="#q"/></mask><path fill="#00508C" mask="url(#r)" d="M-1.942 19.621h21.741V-2.12H-1.942z"/></g><g transform="translate(573 95)"><mask id="t" fill="#fff"><use xlink:href="#s"/></mask><path fill="#00508C" mask="url(#t)" d="M-2.249 47.267h42.304V-1.771H-2.249z"/></g><g transform="translate(571 89)"><mask id="v" fill="#fff"><use xlink:href="#u"/></mask><path fill="#00508C" mask="url(#v)" d="M-2.509 26.621h29.303V-2.681H-2.509z"/></g><g transform="translate(549 166)"><mask id="x" fill="#fff"><use xlink:href="#w"/></mask><path fill="#0085C7" mask="url(#x)" d="M-2.714 53.134h21.752V-2.76H-2.714z"/></g><g transform="translate(575 157)"><mask id="z" fill="#fff"><use xlink:href="#y"/></mask><path fill="#0085C7" mask="url(#z)" d="M-2.39 19.877h21.751V-1.875H-2.39z"/></g><g transform="translate(542 89)"><mask id="B" fill="#fff"><use xlink:href="#A"/></mask><path fill="#00508C" mask="url(#B)" d="M-2.453 72.898h55.168V-2.688H-2.453z"/></g><g transform="translate(548 157)"><mask id="D" fill="#fff"><use xlink:href="#C"/></mask><path fill="#0085C7" mask="url(#D)" d="M-2.115 19.877h48.868V-1.874H-2.115z"/></g><g transform="translate(575 165)"><mask id="F" fill="#fff"><use xlink:href="#E"/></mask><path fill="#0085C7" mask="url(#F)" d="M-2.389 54.134h28.188V-1.76H-2.389z"/></g><g transform="translate(549 157)"><mask id="H" fill="#fff"><use xlink:href="#G"/></mask><path fill="#0085C7" mask="url(#H)" d="M-2.713 19.877h21.752V-1.875H-2.713z"/></g><g transform="translate(574 53)"><mask id="J" fill="#fff"><use xlink:href="#I"/></mask><path fill="#333854" mask="url(#J)" d="M-1.797-3.055l18.45 1.23-1.378 20.663-18.45-1.231z"/></g><g transform="translate(552 64)"><mask id="L" fill="#fff"><use xlink:href="#K"/></mask><path fill="#333854" mask="url(#L)" d="M-1.868-3.311L15.06-2.182l-1.141 17.108-16.928-1.129z"/></g><g transform="translate(558 74)"><mask id="N" fill="#fff"><use xlink:href="#M"/></mask><path fill="#F8A995" mask="url(#N)" d="M-1.999-3.152l21.243 1.417-1.494 22.407-21.243-1.416z"/></g><g transform="translate(558 47)"><mask id="P" fill="#fff"><use xlink:href="#O"/></mask><path fill="#F8A995" mask="url(#P)" d="M-1.727-3.717l31.172 2.079-2.686 40.274-31.172-2.08z"/></g><g transform="translate(552 45)"><mask id="R" fill="#fff"><use xlink:href="#Q"/></mask><path fill="#333854" mask="url(#R)" d="M-1.093-3.08l18.456 1.231-1.767 26.486-18.456-1.23z"/></g><g transform="translate(555 61)"><mask id="T" fill="#fff"><use xlink:href="#S"/></mask><path fill="#F8A995" mask="url(#T)" d="M-1.991-2.68l12.163.81-.8 11.981L-2.79 9.3z"/></g><g transform="translate(564 49)"><mask id="V" fill="#fff"><use xlink:href="#U"/></mask><path fill="#333854" mask="url(#V)" d="M-1.682-3.514l20.234 1.349-.964 14.468-20.235-1.35z"/></g><g transform="translate(558 83)"><mask id="X" fill="#fff"><use xlink:href="#W"/></mask><path fill="#F8A995" mask="url(#X)" d="M-1.687-3.038l20.34 1.356-1.356 20.34-20.34-1.355z"/></g><g transform="translate(561 65)"><mask id="Z" fill="#fff"><use xlink:href="#Y"/></mask><path fill="#333854" mask="url(#Z)" d="M-1.728-2.173l8.766.584-.509 7.626-8.767-.585z"/></g><g transform="translate(563 41)"><mask id="ab" fill="#fff"><use xlink:href="#aa"/></mask><path fill="#333854" mask="url(#ab)" d="M-1.991-2.972l20.234 1.35-.964 14.467-20.235-1.35z"/></g><g transform="translate(561 41)"><mask id="ad" fill="#fff"><use xlink:href="#ac"/></mask><path fill="#333854" mask="url(#ad)" d="M-1.849-2.987l20.234 1.349-.964 14.467-20.235-1.35z"/></g><g transform="translate(569 41)"><mask id="af" fill="#fff"><use xlink:href="#ae"/></mask><path fill="#333854" mask="url(#af)" d="M-1.266-2.913l20.234 1.35-.964 14.467-20.235-1.35z"/></g><g transform="translate(563 44)"><mask id="ah" fill="#fff"><use xlink:href="#ag"/></mask><path fill="#333854" mask="url(#ah)" d="M-1.136-3.6l32.267 2.15-1.357 20.335-32.265-2.151z"/></g><g transform="translate(520 126)"><mask id="aj" fill="#fff"><use xlink:href="#ai"/></mask><path fill="#00508C" mask="url(#aj)" d="M-2.242 19.815h21.744V-1.93H-2.242z"/></g><g transform="translate(521 131)"><mask id="al" fill="#fff"><use xlink:href="#ak"/></mask><path fill="#00508C" mask="url(#al)" d="M-1.97 50.507h37.014V-1.788H-1.97z"/></g><g transform="translate(521 131)"><mask id="an" fill="#fff"><use xlink:href="#am"/></mask><path fill="#00508C" mask="url(#an)" d="M-1.97 50.506h37.014V-1.788H-1.97z"/></g><g transform="translate(544 170)"><mask id="ap" fill="#fff"><use xlink:href="#ao"/></mask><path fill="#F8A995" mask="url(#ap)" d="M-2.589 20.671h21.598V-2.063H-2.589z"/></g><g transform="translate(452 132)"><mask id="ar" fill="#fff"><use xlink:href="#aq"/></mask><path fill="#364460" mask="url(#ar)" d="M-1.939 32h34.108V-2.109H-1.939z"/></g><g transform="translate(443 163)"><mask id="at" fill="#fff"><use xlink:href="#as"/></mask><path fill="#F8A995" mask="url(#at)" d="M4.904 11.628l-9.758-6.406L1.55-4.535l9.758 6.406z"/></g><g transform="translate(398)"><mask id="av" fill="#fff"><use xlink:href="#au"/></mask><path d="M52.74 101.874a7.992 7.992 0 1 0 15.984 0 7.992 7.992 0 0 0-15.984 0" fill="#333854" mask="url(#av)"/></g><g transform="translate(450 93)"><mask id="ax" fill="#fff"><use xlink:href="#aw"/></mask><path fill="#333854" mask="url(#ax)" d="M-2.022 19.628h21.508V-1.879H-2.022z"/></g><g transform="translate(443 164)"><mask id="az" fill="#fff"><use xlink:href="#ay"/></mask><path fill="#F8A995" mask="url(#az)" d="M10.387 17.773L-4.91 7.732 3.117-4.497 18.414 5.544z"/></g><g transform="translate(398)"><mask id="aB" fill="#fff"><use xlink:href="#aA"/></mask><path d="M33.696 122.51a5.807 5.807 0 1 0 8.118 8.307 5.807 5.807 0 0 0-8.118-8.306" fill="#333854" mask="url(#aB)"/></g><g transform="translate(429 120)"><mask id="aD" fill="#fff"><use xlink:href="#aC"/></mask><path fill="#333854" mask="url(#aD)" d="M-1.814 15.232h17.139V-1.906H-1.814z"/></g><g transform="translate(398)"><mask id="aF" fill="#fff"><use xlink:href="#aE"/></mask><path fill="#333854" mask="url(#aF)" d="M54.524 96.832l-21.28 26.174 8.507 7.871 24.478-23.212z"/></g><g transform="translate(431 96)"><mask id="aH" fill="#fff"><use xlink:href="#aG"/></mask><path fill="#333854" mask="url(#aH)" d="M-2.519 37.64h38.51V-1.93h-38.51z"/></g><g transform="translate(398)"><mask id="aJ" fill="#fff"><use xlink:href="#aI"/></mask><path fill="#333854" mask="url(#aJ)" d="M31.924 127.405l13.39 40.12 5.93-1.568-8.114-41.51z"/></g><g transform="translate(429 124)"><mask id="aL" fill="#fff"><use xlink:href="#aK"/></mask><path fill="#333854" mask="url(#aL)" d="M18.532 49.598l-35.806-23.504L4.862-7.628 40.67 15.876z"/></g><g><g transform="translate(398)"><mask id="aN" fill="#fff"><use xlink:href="#aM"/></mask><path d="M52.753 102.244l2.069 44.702h28.585l11.813-46.945c.78-3.105-1.568-6.118-4.77-6.118H60.737c-4.558 0-8.193 3.808-7.983 8.361" fill="#333854" mask="url(#aN)"/></g></g><g transform="translate(450 93)"><mask id="aP" fill="#fff"><use xlink:href="#aO"/></mask><path fill="#333854" mask="url(#aP)" d="M-2.018 56.708h48.15V-1.879h-48.15z"/></g><g transform="translate(398)"><mask id="aR" fill="#fff"><use xlink:href="#aQ"/></mask><path d="M66.53 96.367a7.991 7.991 0 1 1-11.598 10.997A7.991 7.991 0 0 1 66.53 96.367" fill="#333854" mask="url(#aR)"/></g><g transform="translate(450 93)"><mask id="aT" fill="#fff"><use xlink:href="#aS"/></mask><path fill="#333854" mask="url(#aT)" d="M-2.022 19.619h21.507V-1.888H-2.022z"/></g><g transform="translate(449 146)"><mask id="aV" fill="#fff"><use xlink:href="#aU"/></mask><path fill="#364460" mask="url(#aV)" d="M-2.626 36.467h47.562V-1.816H-2.626z"/></g><g transform="translate(398)"><mask id="aX" fill="#fff"><use xlink:href="#aW"/></mask><path fill="#333854" mask="url(#aX)" d="M47.273 114.856l5.981-15.81 14.954 5.656-5.982 15.81z"/></g><g transform="translate(445 99)"><mask id="aZ" fill="#fff"><use xlink:href="#aY"/></mask><path fill="#333854" mask="url(#aZ)" d="M-2.488 24.274h26.459V-2.715H-2.488z"/></g><g transform="translate(398)"><mask id="bb" fill="#fff"><use xlink:href="#ba"/></mask><path fill="#333854" mask="url(#bb)" d="M43.501 162.097l6.646-1.756-7.015-35.895-11.21 2.962z"/></g><g transform="translate(429 124)"><mask id="bd" fill="#fff"><use xlink:href="#bc"/></mask><path fill="#333854" mask="url(#bd)" d="M17.134 44.443L-15.33 23.132 4.863-7.63l32.464 21.31z"/></g><g transform="translate(449 162)"><mask id="bf" fill="#fff"><use xlink:href="#be"/></mask><path fill="#364460" mask="url(#bf)" d="M-2.625 20.464h22.736V-2.271H-2.625z"/></g><g transform="translate(473 162)"><mask id="bh" fill="#fff"><use xlink:href="#bg"/></mask><path fill="#364460" mask="url(#bh)" d="M-1.801 20.464h22.736V-2.271H-1.801z"/></g><g transform="translate(473 208)"><mask id="bj" fill="#fff"><use xlink:href="#bi"/></mask><path fill="#364460" mask="url(#bj)" d="M-1.802 17.309h19.429V-2.12H-1.802z"/></g><g transform="translate(473 215)"><mask id="bl" fill="#fff"><use xlink:href="#bk"/></mask><path fill="#F8A995" mask="url(#bl)" d="M-1.801 77.406h19.429V-2.167H-1.801z"/></g><g transform="translate(473 171)"><mask id="bn" fill="#fff"><use xlink:href="#bm"/></mask><path fill="#364460" mask="url(#bn)" d="M-1.802 47.88h22.713V-2.666H-1.802z"/></g><g transform="translate(452 208)"><mask id="bp" fill="#fff"><use xlink:href="#bo"/></mask><path fill="#364460" mask="url(#bp)" d="M-2.318 17.309h19.43V-2.12h-19.43z"/></g><g transform="translate(452 215)"><mask id="br" fill="#fff"><use xlink:href="#bq"/></mask><path fill="#F8A995" mask="url(#br)" d="M-2.319 77.406h19.43V-2.167h-19.43z"/></g><g transform="translate(449 171)"><mask id="bt" fill="#fff"><use xlink:href="#bs"/></mask><path fill="#364460" mask="url(#bt)" d="M-2.602 47.88h22.713V-2.666H-2.602z"/></g><g transform="translate(449 171)"><mask id="bv" fill="#fff"><use xlink:href="#bu"/></mask><path fill="#364460" mask="url(#bv)" d="M-2.602 47.88h47.514V-2.018H-2.602z"/></g><g transform="translate(464 87)"><mask id="bx" fill="#fff"><use xlink:href="#bw"/></mask><path fill="#F8A995" mask="url(#bx)" d="M-3.43-1.595l18.987-1.53 1.531 18.987-18.988 1.53z"/></g><g transform="translate(464 77)"><mask id="bz" fill="#fff"><use xlink:href="#by"/></mask><path fill="#F8A995" mask="url(#bz)" d="M-4.242-1.924l20.224-1.629 1.86 23.092-20.223 1.63z"/></g><g transform="translate(447 41)"><mask id="bB" fill="#fff"><use xlink:href="#bA"/></mask><path fill="#333854" mask="url(#bB)" d="M-4.161-.477l46.304-3.73 3.734 46.334-46.304 3.73z"/></g><g transform="translate(453 49)"><mask id="bD" fill="#fff"><use xlink:href="#bC"/></mask><path fill="#F8A995" mask="url(#bD)" d="M-4.885-1.072L25.99-3.56l3.335 41.388-30.874 2.488z"/></g><g transform="translate(475 65)"><mask id="bF" fill="#fff"><use xlink:href="#bE"/></mask><path fill="#F8A995" mask="url(#bF)" d="M-3.178-2.336L8.173-3.25 9.088 8.1l-11.35.915z"/></g><g transform="translate(453 48)"><mask id="bH" fill="#fff"><use xlink:href="#bG"/></mask><path fill="#333854" mask="url(#bH)" d="M-3.49-1.574l30.87-2.487 1.906 23.643-30.87 2.488z"/></g><g transform="translate(486 63)"><mask id="bJ" fill="#fff"><use xlink:href="#bI"/></mask><path fill="#333854" mask="url(#bJ)" d="M-3.787-2.101l17.774-1.433 2.453 30.426-17.776 1.433z"/></g><g transform="translate(487 170)"><mask id="bL" fill="#fff"><use xlink:href="#bK"/></mask><path fill="#F8A995" mask="url(#bL)" d="M4.315-4.51L-4.75 2.842l7.352 9.066 9.066-7.352z"/></g><g transform="translate(480 93)"><mask id="bN" fill="#fff"><use xlink:href="#bM"/></mask><path fill="#333854" mask="url(#bN)" d="M-2.555 19.63h21.511V-1.881H-2.555z"/></g><g transform="translate(482 171)"><mask id="bP" fill="#fff"><use xlink:href="#bO"/></mask><path fill="#F8A995" mask="url(#bP)" d="M8.234-4.535L-6.03 7.032l9.868 12.17L18.103 7.634z"/></g><g transform="translate(493 127)"><mask id="bR" fill="#fff"><use xlink:href="#bQ"/></mask><path fill="#0085C7" mask="url(#bR)" d="M-2.172 15.342h17.139V-1.797H-2.172z"/></g><g transform="translate(480 99)"><mask id="bT" fill="#fff"><use xlink:href="#bS"/></mask><path fill="#333854" mask="url(#bT)" d="M-1.915 39.809h29.669V-2.032H-1.915z"/></g><g transform="translate(487 131)"><mask id="bV" fill="#fff"><use xlink:href="#bU"/></mask><path fill="#F8A995" mask="url(#bV)" d="M12.991-7.968l-34.284 27.8 24.34 30.015 34.282-27.802z"/></g><g transform="translate(398)"><mask id="bX" fill="#fff"><use xlink:href="#bW"/></mask><path fill="#333854" mask="url(#bX)" d="M90.31 167.572l6.71 1.5 10.032-34.064-11.055-3.562z"/></g><g transform="translate(488 131)"><mask id="bZ" fill="#fff"><use xlink:href="#bY"/></mask><path fill="#333854" mask="url(#bZ)" d="M1305.927 1163.327l-514.91 417.552L-743.833-311.84l514.909-417.55z"/></g><g transform="translate(488 131)"><mask id="cb" fill="#fff"><use xlink:href="#ca"/></mask><path fill="#333854" mask="url(#cb)" d="M11.991-7.971l-30.983 25.125 22.293 27.49 30.983-25.125z"/></g><g transform="translate(594 126)"><mask id="cd" fill="#fff"><use xlink:href="#cc"/></mask><path fill="#00508C" mask="url(#cd)" d="M-3.022 51.11H19.55V-2.247H-3.022z"/></g><g transform="translate(501 30)"><mask id="cf" fill="#fff"><use xlink:href="#ce"/></mask><path fill="#333854" mask="url(#cf)" d="M-4.941-1.324l29.813-2.092 3.627 51.688-29.813 2.092z"/></g><g transform="translate(521 30)"><mask id="ch" fill="#fff"><use xlink:href="#cg"/></mask><path fill="#333854" mask="url(#ch)" d="M27.558-1.324L-2.255-3.416l-3.626 51.688 29.813 2.092z"/></g><g transform="translate(515 65)"><mask id="cj" fill="#fff"><use xlink:href="#ci"/></mask><path fill="#A37474" mask="url(#cj)" d="M-3.722-2.367L16.99-3.82l1.658 23.642-20.712 1.453z"/></g><g transform="translate(508 39)"><mask id="cl" fill="#fff"><use xlink:href="#ck"/></mask><path fill="#A37474" mask="url(#cl)" d="M-3.677-1.888l31.783-2.23 2.632 37.51-31.783 2.23z"/></g><g transform="translate(519 39)"><mask id="cn" fill="#fff"><use xlink:href="#cm"/></mask><path fill="#A37474" mask="url(#cn)" d="M22.153-1.888L-9.63-4.118l-2.63 37.51 31.781 2.23z"/></g><g transform="translate(507 33)"><mask id="cp" fill="#fff"><use xlink:href="#co"/></mask><path fill="#333854" mask="url(#cp)" d="M-4.12-1.21l27.115-1.902 2.013 28.683-27.115 1.903z"/></g><g transform="translate(517 33)"><mask id="cr" fill="#fff"><use xlink:href="#cq"/></mask><path fill="#333854" mask="url(#cr)" d="M24.653-1.21L-2.46-3.112l-2.013 28.683 27.115 1.903z"/></g><g transform="translate(515 75)"><mask id="ct" fill="#fff"><use xlink:href="#cs"/></mask><path fill="#A37474" mask="url(#ct)" d="M-3.01-1.994L16.61-3.37l1.376 19.618-19.62 1.377z"/></g><g><g transform="translate(398)"><mask id="cv" fill="#fff"><use xlink:href="#cu"/></mask><path d="M103.465 137.778c0 8.715 7.065 15.78 15.78 15.78s15.78-7.065 15.78-15.78-7.065-15.78-15.78-15.78-15.78 7.065-15.78 15.78" fill="#F04F4F" mask="url(#cv)"/></g><g transform="translate(398)"><mask id="cx" fill="#fff"><use xlink:href="#cw"/></mask><path d="M101.166 88.017a8.823 8.823 0 1 0 17.645 0 8.823 8.823 0 0 0-17.645 0" fill="#FF907A" mask="url(#cx)"/></g><g transform="translate(398)"><mask id="cz" fill="#fff"><use xlink:href="#cy"/></mask><path fill="#FFF" mask="url(#cz)" d="M102.31 83.602L83.9 115.977 94.597 123l22.433-29.732z"/></g><g transform="translate(398)"><mask id="cB" fill="#fff"><use xlink:href="#cA"/></mask><path d="M135.627 300.664a4.412 4.412 0 1 1-8.824-.002 4.412 4.412 0 0 1 8.824.002" fill="#F04F4F" mask="url(#cB)"/></g><g transform="translate(398)"><mask id="cD" fill="#fff"><use xlink:href="#cC"/></mask><path d="M118.4 300.664a4.412 4.412 0 1 1-8.825-.002 4.412 4.412 0 0 1 8.824.002" fill="#F04F4F" mask="url(#cD)"/></g><g transform="translate(398)"><mask id="cF" fill="#fff"><use xlink:href="#cE"/></mask><path d="M101.18 88.425l2.285 49.354h31.56l13.042-51.831c.862-3.428-1.731-6.753-5.266-6.753h-32.807c-5.032 0-9.045 4.203-8.813 9.23" fill="#FFF" mask="url(#cF)"/></g><g transform="translate(398)"><mask id="cH" fill="#fff"><use xlink:href="#cG"/></mask><path d="M112.208 105.472a8.822 8.822 0 0 1-8.823 8.822 8.823 8.823 0 1 1 0-17.645 8.823 8.823 0 0 1 8.823 8.823" fill="#FFF" mask="url(#cH)"/></g><g transform="translate(398)"><mask id="cJ" fill="#fff"><use xlink:href="#cI"/></mask><path d="M115.3 80.91a8.822 8.822 0 0 1 1.729 12.358 8.822 8.822 0 0 1-12.357 1.729 8.822 8.822 0 0 1-1.73-12.357 8.822 8.822 0 0 1 12.358-1.73" fill="#FFF" mask="url(#cJ)"/></g><g transform="translate(398)"><mask id="cL" fill="#fff"><use xlink:href="#cK"/></mask><path d="M103.465 137.778H135.025l1.7 1.321a23.503 23.503 0 0 1 9.082 18.557v6.788c0 5.247-4.254 9.501-9.502 9.501h-27.408a9.501 9.501 0 0 1-9.501-9.5v-9.296a39.13 39.13 0 0 1 4.069-17.37" fill="#00508C" mask="url(#cL)"/></g><g transform="translate(398)"><mask id="cN" fill="#fff"><use xlink:href="#cM"/></mask><path fill="#FFF" mask="url(#cN)" d="M95.13 102.35l6.604-17.455 16.51 6.244-6.604 17.455z"/></g><g transform="translate(398)"><mask id="cP" fill="#fff"><use xlink:href="#cO"/></mask><path d="M100.807 108.041a3.394 3.394 0 1 0 6.517 1.895 3.394 3.394 0 0 0-6.517-1.895" fill="#FF907A" mask="url(#cP)"/></g><g transform="translate(398)"><mask id="cR" fill="#fff"><use xlink:href="#cQ"/></mask><path d="M144.394 96.64a8.823 8.823 0 1 1-3.739-17.245 8.823 8.823 0 0 1 3.74 17.244" fill="#FFF" mask="url(#cR)"/></g><g transform="translate(398)"><mask id="cT" fill="#fff"><use xlink:href="#cS"/></mask><path d="M94.54 112.58a4.71 4.71 0 0 0 1.551.18v.004l8.135-.385.787-6.649-7.82-2.274a4.75 4.75 0 0 0-5.889 3.235 4.75 4.75 0 0 0 3.235 5.888" fill="#A37474" mask="url(#cT)"/></g><g transform="translate(398)"><mask id="cV" fill="#fff"><use xlink:href="#cU"/></mask><path d="M141.906 123.137a6.411 6.411 0 1 1 12.312 3.583 6.411 6.411 0 0 1-12.312-3.583" fill="#FFF" mask="url(#cV)"/></g><g transform="translate(398)"><mask id="cX" fill="#fff"><use xlink:href="#cW"/></mask><path fill="#FFF" mask="url(#cX)" d="M151.318 87.285l3.134 37.111-12.655 1.89-7.895-36.399z"/></g><g transform="translate(398)"><mask id="cZ" fill="#fff"><use xlink:href="#cY"/></mask><path fill="#A37474" mask="url(#cZ)" d="M145.487 130.8l-42.786-18.704 2.311-6.366 44.84 13.042z"/></g><g transform="translate(398)"><mask id="db" fill="#fff"><use xlink:href="#da"/></mask><path d="M118.4 164.442c0 5.248-4.255 9.5-9.503 9.5a9.501 9.501 0 0 1 0-19.002c5.248 0 9.502 4.255 9.502 9.502" fill="#00508C" mask="url(#db)"/></g><g transform="translate(398)"><mask id="dd" fill="#fff"><use xlink:href="#dc"/></mask><path d="M145.807 164.442c0 5.248-4.254 9.5-9.502 9.5a9.501 9.501 0 0 1 0-19.002c5.248 0 9.502 4.255 9.502 9.502" fill="#00508C" mask="url(#dd)"/></g><g transform="translate(398)"><mask id="df" fill="#fff"><use xlink:href="#de"/></mask><path d="M126.804 300.664h8.822v6.108h-12.36a1.892 1.892 0 0 1-.943-3.531l4.48-2.577z" fill="#343854" mask="url(#df)"/></g><g transform="translate(398)"><mask id="dh" fill="#fff"><use xlink:href="#dg"/></mask><path d="M109.576 300.664h8.823v6.108h-12.36a1.892 1.892 0 0 1-.943-3.531l4.48-2.577z" fill="#343854" mask="url(#dh)"/></g><g transform="translate(398)"><mask id="dj" fill="#fff"><use xlink:href="#di"/></mask><path d="M126.803 213.571a7.676 7.676 0 1 0 15.353 0 7.676 7.676 0 0 0-15.353 0" fill="#F04F4F" mask="url(#dj)"/></g><g transform="translate(398)"><mask id="dl" fill="#fff"><use xlink:href="#dk"/></mask><path fill="#FF907A" mask="url(#dl)" d="M142.155 213.571l-6.529 87.092h-8.823v-87.092z"/></g><g transform="translate(398)"><mask id="dn" fill="#fff"><use xlink:href="#dm"/></mask><path fill="#00508C" mask="url(#dn)" d="M126.804 164.442l-.001 49.129 15.33.579 3.648-48.993z"/></g><g transform="translate(398)"><mask id="dp" fill="#fff"><use xlink:href="#do"/></mask><path d="M118.4 213.571a7.676 7.676 0 1 1-15.353 0 7.676 7.676 0 0 1 15.352 0" fill="#F04F4F" mask="url(#dp)"/></g><g transform="translate(398)"><mask id="dr" fill="#fff"><use xlink:href="#dq"/></mask><path fill="#FF907A" mask="url(#dr)" d="M118.398 213.571v87.092h-8.823l-6.529-87.092z"/></g><g transform="translate(398)"><mask id="dt" fill="#fff"><use xlink:href="#ds"/></mask><path fill="#00508C" mask="url(#dt)" d="M118.398 164.442l.001 49.129-15.33.579-3.648-48.993z"/></g><g transform="translate(398)"><mask id="dv" fill="#fff"><use xlink:href="#du"/></mask><path d="M119.7 91.568l-6.714-12.374h23.938L126.636 92.17c-1.859 2.345-5.509 2.028-6.937-.602" fill="#A37474" mask="url(#dv)"/></g><g transform="translate(398)"><mask id="dx" fill="#fff"><use xlink:href="#dw"/></mask><path d="M138.781 111.986a3.393 3.393 0 1 1-6.46-2.079 3.393 3.393 0 0 1 6.46 2.079" fill="#A37474" mask="url(#dx)"/></g><g transform="translate(398)"><mask id="dz" fill="#fff"><use xlink:href="#dy"/></mask><path d="M140.044 118.54l.002-.004c.41.306.873.554 1.387.72a4.75 4.75 0 0 0 2.91-9.045l-7.752-2.494-3.071 5.949 6.524 4.874z" fill="#A37474" mask="url(#dz)"/></g><g transform="translate(398)"><mask id="dB" fill="#fff"><use xlink:href="#dA"/></mask><path d="M95.849 118.426a6.41 6.41 0 0 0-7.084-5.658 6.41 6.41 0 0 0-5.658 7.084 6.41 6.41 0 0 0 7.084 5.658 6.41 6.41 0 0 0 5.658-7.084" fill="#FFF" mask="url(#dB)"/></g><g transform="translate(398)"><mask id="dD" fill="#fff"><use xlink:href="#dC"/></mask><path fill="#A37474" mask="url(#dD)" d="M91.013 125.364l45.35-11.123-1.19-6.667-46.408 5.193z"/></g><g transform="translate(398)"><mask id="dF" fill="#fff"><use xlink:href="#dE"/></mask><path fill="#FFF" mask="url(#dF)" d="M130.23 115.747l-1.335-7.472-40.13 4.491 2.25 12.6z"/></g><g transform="translate(398)"><mask id="dH" fill="#fff"><use xlink:href="#dG"/></mask><path fill="#FFF" mask="url(#dH)" d="M108.49 114.628l2.591-7.134 38.774 11.277-4.369 12.03z"/></g></g></g></svg>